<mxfile host="app.diagrams.net" agent="Mozilla/5.0 (Windows NT 10.0; Win64; x64) AppleWebKit/537.36 (KHTML, like Gecko) Chrome/130.0.0.0 Safari/537.36" version="24.8.4">
  <diagram name="Сторінка-1" id="ZCung3v53UTxyK-X94om">
    <mxGraphModel dx="6427" dy="2733" grid="1" gridSize="10" guides="1" tooltips="1" connect="1" arrows="1" fold="1" page="1" pageScale="1" pageWidth="827" pageHeight="1169" math="0" shadow="0">
      <root>
        <mxCell id="0" />
        <mxCell id="1" parent="0" />
        <mxCell id="gTfDDO29pahhirzjCOl5-8" style="edgeStyle=orthogonalEdgeStyle;rounded=0;orthogonalLoop=1;jettySize=auto;html=1;entryX=0.5;entryY=0;entryDx=0;entryDy=0;" edge="1" parent="1" source="gTfDDO29pahhirzjCOl5-1" target="gTfDDO29pahhirzjCOl5-2">
          <mxGeometry relative="1" as="geometry" />
        </mxCell>
        <mxCell id="gTfDDO29pahhirzjCOl5-1" value="start" style="ellipse;whiteSpace=wrap;html=1;" vertex="1" parent="1">
          <mxGeometry x="354" y="30" width="120" height="80" as="geometry" />
        </mxCell>
        <mxCell id="gTfDDO29pahhirzjCOl5-9" style="edgeStyle=orthogonalEdgeStyle;rounded=0;orthogonalLoop=1;jettySize=auto;html=1;" edge="1" parent="1" source="gTfDDO29pahhirzjCOl5-2" target="gTfDDO29pahhirzjCOl5-3">
          <mxGeometry relative="1" as="geometry" />
        </mxCell>
        <mxCell id="gTfDDO29pahhirzjCOl5-2" value="cout" style="shape=parallelogram;perimeter=parallelogramPerimeter;whiteSpace=wrap;html=1;fixedSize=1;" vertex="1" parent="1">
          <mxGeometry x="354" y="150" width="120" height="60" as="geometry" />
        </mxCell>
        <mxCell id="gTfDDO29pahhirzjCOl5-10" style="edgeStyle=orthogonalEdgeStyle;rounded=0;orthogonalLoop=1;jettySize=auto;html=1;" edge="1" parent="1" source="gTfDDO29pahhirzjCOl5-3" target="gTfDDO29pahhirzjCOl5-4">
          <mxGeometry relative="1" as="geometry" />
        </mxCell>
        <mxCell id="gTfDDO29pahhirzjCOl5-3" value="cout" style="shape=parallelogram;perimeter=parallelogramPerimeter;whiteSpace=wrap;html=1;fixedSize=1;" vertex="1" parent="1">
          <mxGeometry x="350" y="240" width="120" height="60" as="geometry" />
        </mxCell>
        <mxCell id="gTfDDO29pahhirzjCOl5-11" style="edgeStyle=orthogonalEdgeStyle;rounded=0;orthogonalLoop=1;jettySize=auto;html=1;entryX=0.5;entryY=0;entryDx=0;entryDy=0;" edge="1" parent="1" source="gTfDDO29pahhirzjCOl5-4" target="gTfDDO29pahhirzjCOl5-5">
          <mxGeometry relative="1" as="geometry" />
        </mxCell>
        <mxCell id="gTfDDO29pahhirzjCOl5-4" value="cout" style="shape=parallelogram;perimeter=parallelogramPerimeter;whiteSpace=wrap;html=1;fixedSize=1;" vertex="1" parent="1">
          <mxGeometry x="350" y="340" width="120" height="60" as="geometry" />
        </mxCell>
        <mxCell id="gTfDDO29pahhirzjCOl5-12" style="edgeStyle=orthogonalEdgeStyle;rounded=0;orthogonalLoop=1;jettySize=auto;html=1;" edge="1" parent="1" source="gTfDDO29pahhirzjCOl5-5" target="gTfDDO29pahhirzjCOl5-7">
          <mxGeometry relative="1" as="geometry" />
        </mxCell>
        <mxCell id="gTfDDO29pahhirzjCOl5-5" value="cout" style="shape=parallelogram;perimeter=parallelogramPerimeter;whiteSpace=wrap;html=1;fixedSize=1;" vertex="1" parent="1">
          <mxGeometry x="354" y="440" width="120" height="60" as="geometry" />
        </mxCell>
        <mxCell id="gTfDDO29pahhirzjCOl5-14" style="edgeStyle=orthogonalEdgeStyle;rounded=0;orthogonalLoop=1;jettySize=auto;html=1;" edge="1" parent="1" source="gTfDDO29pahhirzjCOl5-6" target="gTfDDO29pahhirzjCOl5-15">
          <mxGeometry relative="1" as="geometry">
            <mxPoint x="414" y="780" as="targetPoint" />
          </mxGeometry>
        </mxCell>
        <mxCell id="gTfDDO29pahhirzjCOl5-6" value="cout" style="shape=parallelogram;perimeter=parallelogramPerimeter;whiteSpace=wrap;html=1;fixedSize=1;" vertex="1" parent="1">
          <mxGeometry x="354" y="640" width="120" height="60" as="geometry" />
        </mxCell>
        <mxCell id="gTfDDO29pahhirzjCOl5-13" style="edgeStyle=orthogonalEdgeStyle;rounded=0;orthogonalLoop=1;jettySize=auto;html=1;entryX=0.5;entryY=0;entryDx=0;entryDy=0;" edge="1" parent="1" source="gTfDDO29pahhirzjCOl5-7" target="gTfDDO29pahhirzjCOl5-6">
          <mxGeometry relative="1" as="geometry" />
        </mxCell>
        <mxCell id="gTfDDO29pahhirzjCOl5-7" value="cout" style="shape=parallelogram;perimeter=parallelogramPerimeter;whiteSpace=wrap;html=1;fixedSize=1;" vertex="1" parent="1">
          <mxGeometry x="354" y="540" width="120" height="60" as="geometry" />
        </mxCell>
        <mxCell id="gTfDDO29pahhirzjCOl5-18" style="edgeStyle=orthogonalEdgeStyle;rounded=0;orthogonalLoop=1;jettySize=auto;html=1;" edge="1" parent="1" source="gTfDDO29pahhirzjCOl5-15" target="gTfDDO29pahhirzjCOl5-19">
          <mxGeometry relative="1" as="geometry">
            <mxPoint x="414" y="950" as="targetPoint" />
          </mxGeometry>
        </mxCell>
        <mxCell id="gTfDDO29pahhirzjCOl5-191" style="edgeStyle=orthogonalEdgeStyle;rounded=0;orthogonalLoop=1;jettySize=auto;html=1;entryX=0.997;entryY=0.577;entryDx=0;entryDy=0;entryPerimeter=0;" edge="1" parent="1" source="gTfDDO29pahhirzjCOl5-15" target="gTfDDO29pahhirzjCOl5-189">
          <mxGeometry relative="1" as="geometry">
            <mxPoint x="1090" y="2780" as="targetPoint" />
            <Array as="points">
              <mxPoint x="570" y="820" />
              <mxPoint x="570" y="821" />
              <mxPoint x="1160" y="821" />
              <mxPoint x="1160" y="2780" />
              <mxPoint x="470" y="2780" />
            </Array>
          </mxGeometry>
        </mxCell>
        <mxCell id="gTfDDO29pahhirzjCOl5-15" value="while" style="rhombus;whiteSpace=wrap;html=1;" vertex="1" parent="1">
          <mxGeometry x="374" y="780" width="80" height="80" as="geometry" />
        </mxCell>
        <mxCell id="gTfDDO29pahhirzjCOl5-20" style="edgeStyle=orthogonalEdgeStyle;rounded=0;orthogonalLoop=1;jettySize=auto;html=1;" edge="1" parent="1" source="gTfDDO29pahhirzjCOl5-19" target="gTfDDO29pahhirzjCOl5-21">
          <mxGeometry relative="1" as="geometry">
            <mxPoint x="414" y="1060" as="targetPoint" />
          </mxGeometry>
        </mxCell>
        <mxCell id="gTfDDO29pahhirzjCOl5-19" value="cin" style="shape=parallelogram;perimeter=parallelogramPerimeter;whiteSpace=wrap;html=1;fixedSize=1;" vertex="1" parent="1">
          <mxGeometry x="354" y="920" width="120" height="60" as="geometry" />
        </mxCell>
        <mxCell id="gTfDDO29pahhirzjCOl5-22" style="edgeStyle=orthogonalEdgeStyle;rounded=0;orthogonalLoop=1;jettySize=auto;html=1;" edge="1" parent="1" source="gTfDDO29pahhirzjCOl5-21" target="gTfDDO29pahhirzjCOl5-23">
          <mxGeometry relative="1" as="geometry">
            <mxPoint x="410" y="1160" as="targetPoint" />
          </mxGeometry>
        </mxCell>
        <mxCell id="gTfDDO29pahhirzjCOl5-21" value="switch" style="rhombus;whiteSpace=wrap;html=1;" vertex="1" parent="1">
          <mxGeometry x="374" y="1020" width="80" height="80" as="geometry" />
        </mxCell>
        <mxCell id="gTfDDO29pahhirzjCOl5-29" style="edgeStyle=orthogonalEdgeStyle;rounded=0;orthogonalLoop=1;jettySize=auto;html=1;" edge="1" parent="1" source="gTfDDO29pahhirzjCOl5-23" target="gTfDDO29pahhirzjCOl5-26">
          <mxGeometry relative="1" as="geometry" />
        </mxCell>
        <mxCell id="gTfDDO29pahhirzjCOl5-33" style="edgeStyle=orthogonalEdgeStyle;rounded=0;orthogonalLoop=1;jettySize=auto;html=1;" edge="1" parent="1" source="gTfDDO29pahhirzjCOl5-23">
          <mxGeometry relative="1" as="geometry">
            <mxPoint x="160" y="1199" as="targetPoint" />
          </mxGeometry>
        </mxCell>
        <mxCell id="gTfDDO29pahhirzjCOl5-23" value="1" style="rounded=0;whiteSpace=wrap;html=1;" vertex="1" parent="1">
          <mxGeometry x="355" y="1169" width="120" height="60" as="geometry" />
        </mxCell>
        <mxCell id="gTfDDO29pahhirzjCOl5-31" style="edgeStyle=orthogonalEdgeStyle;rounded=0;orthogonalLoop=1;jettySize=auto;html=1;" edge="1" parent="1" source="gTfDDO29pahhirzjCOl5-25" target="gTfDDO29pahhirzjCOl5-27">
          <mxGeometry relative="1" as="geometry" />
        </mxCell>
        <mxCell id="gTfDDO29pahhirzjCOl5-133" style="edgeStyle=orthogonalEdgeStyle;rounded=0;orthogonalLoop=1;jettySize=auto;html=1;" edge="1" parent="1" source="gTfDDO29pahhirzjCOl5-25" target="gTfDDO29pahhirzjCOl5-134">
          <mxGeometry relative="1" as="geometry">
            <mxPoint x="180" y="1440" as="targetPoint" />
          </mxGeometry>
        </mxCell>
        <mxCell id="gTfDDO29pahhirzjCOl5-25" value="3" style="rounded=0;whiteSpace=wrap;html=1;" vertex="1" parent="1">
          <mxGeometry x="354" y="1410" width="120" height="60" as="geometry" />
        </mxCell>
        <mxCell id="gTfDDO29pahhirzjCOl5-30" style="edgeStyle=orthogonalEdgeStyle;rounded=0;orthogonalLoop=1;jettySize=auto;html=1;entryX=0.5;entryY=0;entryDx=0;entryDy=0;" edge="1" parent="1" source="gTfDDO29pahhirzjCOl5-26" target="gTfDDO29pahhirzjCOl5-25">
          <mxGeometry relative="1" as="geometry" />
        </mxCell>
        <mxCell id="gTfDDO29pahhirzjCOl5-34" style="edgeStyle=orthogonalEdgeStyle;rounded=0;orthogonalLoop=1;jettySize=auto;html=1;" edge="1" parent="1" source="gTfDDO29pahhirzjCOl5-26" target="gTfDDO29pahhirzjCOl5-76">
          <mxGeometry relative="1" as="geometry">
            <mxPoint x="180" y="1310" as="targetPoint" />
          </mxGeometry>
        </mxCell>
        <mxCell id="gTfDDO29pahhirzjCOl5-26" value="2" style="rounded=0;whiteSpace=wrap;html=1;" vertex="1" parent="1">
          <mxGeometry x="355" y="1280" width="120" height="60" as="geometry" />
        </mxCell>
        <mxCell id="gTfDDO29pahhirzjCOl5-36" style="edgeStyle=orthogonalEdgeStyle;rounded=0;orthogonalLoop=1;jettySize=auto;html=1;" edge="1" parent="1" source="gTfDDO29pahhirzjCOl5-27" target="gTfDDO29pahhirzjCOl5-140">
          <mxGeometry relative="1" as="geometry">
            <mxPoint x="170" y="1550" as="targetPoint" />
          </mxGeometry>
        </mxCell>
        <mxCell id="gTfDDO29pahhirzjCOl5-27" value="4" style="rounded=0;whiteSpace=wrap;html=1;" vertex="1" parent="1">
          <mxGeometry x="354" y="1520" width="120" height="60" as="geometry" />
        </mxCell>
        <mxCell id="gTfDDO29pahhirzjCOl5-37" style="edgeStyle=orthogonalEdgeStyle;rounded=0;orthogonalLoop=1;jettySize=auto;html=1;" edge="1" parent="1" source="gTfDDO29pahhirzjCOl5-28" target="gTfDDO29pahhirzjCOl5-143">
          <mxGeometry relative="1" as="geometry">
            <mxPoint x="160" y="1660" as="targetPoint" />
          </mxGeometry>
        </mxCell>
        <mxCell id="gTfDDO29pahhirzjCOl5-151" style="edgeStyle=orthogonalEdgeStyle;rounded=0;orthogonalLoop=1;jettySize=auto;html=1;" edge="1" parent="1" source="gTfDDO29pahhirzjCOl5-28" target="gTfDDO29pahhirzjCOl5-152">
          <mxGeometry relative="1" as="geometry">
            <mxPoint x="410" y="1830" as="targetPoint" />
          </mxGeometry>
        </mxCell>
        <mxCell id="gTfDDO29pahhirzjCOl5-28" value="default" style="rounded=0;whiteSpace=wrap;html=1;" vertex="1" parent="1">
          <mxGeometry x="350" y="1630" width="120" height="60" as="geometry" />
        </mxCell>
        <mxCell id="gTfDDO29pahhirzjCOl5-32" style="edgeStyle=orthogonalEdgeStyle;rounded=0;orthogonalLoop=1;jettySize=auto;html=1;entryX=0.567;entryY=0.067;entryDx=0;entryDy=0;entryPerimeter=0;" edge="1" parent="1" source="gTfDDO29pahhirzjCOl5-27" target="gTfDDO29pahhirzjCOl5-28">
          <mxGeometry relative="1" as="geometry" />
        </mxCell>
        <mxCell id="gTfDDO29pahhirzjCOl5-39" style="edgeStyle=orthogonalEdgeStyle;rounded=0;orthogonalLoop=1;jettySize=auto;html=1;" edge="1" parent="1" source="gTfDDO29pahhirzjCOl5-38" target="gTfDDO29pahhirzjCOl5-40">
          <mxGeometry relative="1" as="geometry">
            <mxPoint x="-40" y="1200" as="targetPoint" />
          </mxGeometry>
        </mxCell>
        <mxCell id="gTfDDO29pahhirzjCOl5-146" style="edgeStyle=orthogonalEdgeStyle;rounded=0;orthogonalLoop=1;jettySize=auto;html=1;entryX=0.5;entryY=0;entryDx=0;entryDy=0;" edge="1" parent="1" source="gTfDDO29pahhirzjCOl5-38" target="gTfDDO29pahhirzjCOl5-76">
          <mxGeometry relative="1" as="geometry" />
        </mxCell>
        <mxCell id="gTfDDO29pahhirzjCOl5-38" value="cout" style="shape=parallelogram;perimeter=parallelogramPerimeter;whiteSpace=wrap;html=1;fixedSize=1;" vertex="1" parent="1">
          <mxGeometry x="50" y="1170" width="120" height="60" as="geometry" />
        </mxCell>
        <mxCell id="gTfDDO29pahhirzjCOl5-136" style="edgeStyle=orthogonalEdgeStyle;rounded=0;orthogonalLoop=1;jettySize=auto;html=1;" edge="1" parent="1" source="gTfDDO29pahhirzjCOl5-40" target="gTfDDO29pahhirzjCOl5-137">
          <mxGeometry relative="1" as="geometry">
            <mxPoint x="-70" y="930" as="targetPoint" />
          </mxGeometry>
        </mxCell>
        <mxCell id="gTfDDO29pahhirzjCOl5-40" value="cout" style="shape=parallelogram;perimeter=parallelogramPerimeter;whiteSpace=wrap;html=1;fixedSize=1;" vertex="1" parent="1">
          <mxGeometry x="-130" y="1000" width="120" height="60" as="geometry" />
        </mxCell>
        <mxCell id="gTfDDO29pahhirzjCOl5-76" value="cout" style="shape=parallelogram;perimeter=parallelogramPerimeter;whiteSpace=wrap;html=1;fixedSize=1;" vertex="1" parent="1">
          <mxGeometry x="90" y="1280" width="120" height="60" as="geometry" />
        </mxCell>
        <mxCell id="gTfDDO29pahhirzjCOl5-97" style="edgeStyle=orthogonalEdgeStyle;rounded=0;orthogonalLoop=1;jettySize=auto;html=1;exitX=0;exitY=0.5;exitDx=0;exitDy=0;" edge="1" parent="1" target="gTfDDO29pahhirzjCOl5-99" source="gTfDDO29pahhirzjCOl5-76">
          <mxGeometry relative="1" as="geometry">
            <mxPoint x="-80" y="1310" as="targetPoint" />
            <mxPoint x="20" y="1310" as="sourcePoint" />
          </mxGeometry>
        </mxCell>
        <mxCell id="gTfDDO29pahhirzjCOl5-98" style="edgeStyle=orthogonalEdgeStyle;rounded=0;orthogonalLoop=1;jettySize=auto;html=1;" edge="1" parent="1" target="gTfDDO29pahhirzjCOl5-102">
          <mxGeometry relative="1" as="geometry">
            <mxPoint x="-450" y="1180" as="targetPoint" />
            <mxPoint x="-340" y="1180" as="sourcePoint" />
          </mxGeometry>
        </mxCell>
        <mxCell id="gTfDDO29pahhirzjCOl5-99" value="&#xa;&lt;span style=&quot;color: rgb(0, 0, 0); font-family: Helvetica; font-size: 12px; font-style: normal; font-variant-ligatures: normal; font-variant-caps: normal; font-weight: 400; letter-spacing: normal; orphans: 2; text-align: center; text-indent: 0px; text-transform: none; widows: 2; word-spacing: 0px; -webkit-text-stroke-width: 0px; white-space: normal; background-color: rgb(251, 251, 251); text-decoration-thickness: initial; text-decoration-style: initial; text-decoration-color: initial; display: inline !important; float: none;&quot;&gt;cout&lt;/span&gt;&#xa;&#xa;" style="shape=parallelogram;perimeter=parallelogramPerimeter;whiteSpace=wrap;html=1;fixedSize=1;" vertex="1" parent="1">
          <mxGeometry x="-360" y="1160" width="120" height="60" as="geometry" />
        </mxCell>
        <mxCell id="gTfDDO29pahhirzjCOl5-100" style="edgeStyle=orthogonalEdgeStyle;rounded=0;orthogonalLoop=1;jettySize=auto;html=1;" edge="1" parent="1" source="gTfDDO29pahhirzjCOl5-102" target="gTfDDO29pahhirzjCOl5-105">
          <mxGeometry relative="1" as="geometry">
            <mxPoint x="-560" y="1180" as="targetPoint" />
          </mxGeometry>
        </mxCell>
        <mxCell id="gTfDDO29pahhirzjCOl5-101" style="edgeStyle=orthogonalEdgeStyle;rounded=0;orthogonalLoop=1;jettySize=auto;html=1;" edge="1" parent="1" source="gTfDDO29pahhirzjCOl5-102" target="gTfDDO29pahhirzjCOl5-108">
          <mxGeometry relative="1" as="geometry">
            <mxPoint x="-450" y="1060" as="targetPoint" />
          </mxGeometry>
        </mxCell>
        <mxCell id="gTfDDO29pahhirzjCOl5-102" value="if" style="rhombus;whiteSpace=wrap;html=1;" vertex="1" parent="1">
          <mxGeometry x="-490" y="1140" width="80" height="80" as="geometry" />
        </mxCell>
        <mxCell id="gTfDDO29pahhirzjCOl5-103" style="edgeStyle=orthogonalEdgeStyle;rounded=0;orthogonalLoop=1;jettySize=auto;html=1;" edge="1" parent="1" source="gTfDDO29pahhirzjCOl5-105" target="gTfDDO29pahhirzjCOl5-111">
          <mxGeometry relative="1" as="geometry">
            <mxPoint x="-760" y="1180" as="targetPoint" />
          </mxGeometry>
        </mxCell>
        <mxCell id="gTfDDO29pahhirzjCOl5-104" style="edgeStyle=orthogonalEdgeStyle;rounded=0;orthogonalLoop=1;jettySize=auto;html=1;" edge="1" parent="1" source="gTfDDO29pahhirzjCOl5-105" target="gTfDDO29pahhirzjCOl5-113">
          <mxGeometry relative="1" as="geometry">
            <mxPoint x="-740" y="1270" as="targetPoint" />
            <Array as="points">
              <mxPoint x="-620" y="1260" />
              <mxPoint x="-619" y="1260" />
            </Array>
          </mxGeometry>
        </mxCell>
        <mxCell id="gTfDDO29pahhirzjCOl5-105" value="if" style="rhombus;whiteSpace=wrap;html=1;" vertex="1" parent="1">
          <mxGeometry x="-660" y="1140" width="80" height="80" as="geometry" />
        </mxCell>
        <mxCell id="gTfDDO29pahhirzjCOl5-106" value="true" style="text;html=1;align=center;verticalAlign=middle;resizable=0;points=[];autosize=1;strokeColor=none;fillColor=none;" vertex="1" parent="1">
          <mxGeometry x="-540" y="1140" width="40" height="30" as="geometry" />
        </mxCell>
        <mxCell id="gTfDDO29pahhirzjCOl5-107" style="edgeStyle=orthogonalEdgeStyle;rounded=0;orthogonalLoop=1;jettySize=auto;html=1;" edge="1" parent="1" source="gTfDDO29pahhirzjCOl5-108" target="gTfDDO29pahhirzjCOl5-109">
          <mxGeometry relative="1" as="geometry">
            <mxPoint x="-580" y="1090" as="targetPoint" />
          </mxGeometry>
        </mxCell>
        <mxCell id="gTfDDO29pahhirzjCOl5-108" value="else" style="rhombus;whiteSpace=wrap;html=1;" vertex="1" parent="1">
          <mxGeometry x="-490" y="1050" width="80" height="80" as="geometry" />
        </mxCell>
        <mxCell id="gTfDDO29pahhirzjCOl5-109" value="cout" style="shape=parallelogram;perimeter=parallelogramPerimeter;whiteSpace=wrap;html=1;fixedSize=1;" vertex="1" parent="1">
          <mxGeometry x="-640" y="1060" width="120" height="60" as="geometry" />
        </mxCell>
        <mxCell id="gTfDDO29pahhirzjCOl5-110" value="true" style="text;html=1;align=center;verticalAlign=middle;resizable=0;points=[];autosize=1;strokeColor=none;fillColor=none;" vertex="1" parent="1">
          <mxGeometry x="-730" y="1138" width="40" height="30" as="geometry" />
        </mxCell>
        <mxCell id="gTfDDO29pahhirzjCOl5-111" value="cout" style="shape=parallelogram;perimeter=parallelogramPerimeter;whiteSpace=wrap;html=1;fixedSize=1;" vertex="1" parent="1">
          <mxGeometry x="-850" y="1149" width="120" height="60" as="geometry" />
        </mxCell>
        <mxCell id="gTfDDO29pahhirzjCOl5-112" style="edgeStyle=orthogonalEdgeStyle;rounded=0;orthogonalLoop=1;jettySize=auto;html=1;" edge="1" parent="1" source="gTfDDO29pahhirzjCOl5-113" target="gTfDDO29pahhirzjCOl5-114">
          <mxGeometry relative="1" as="geometry">
            <mxPoint x="-860" y="1270" as="targetPoint" />
          </mxGeometry>
        </mxCell>
        <mxCell id="gTfDDO29pahhirzjCOl5-113" value="else" style="rhombus;whiteSpace=wrap;html=1;" vertex="1" parent="1">
          <mxGeometry x="-780" y="1230" width="80" height="80" as="geometry" />
        </mxCell>
        <mxCell id="gTfDDO29pahhirzjCOl5-114" value="cout" style="shape=parallelogram;perimeter=parallelogramPerimeter;whiteSpace=wrap;html=1;fixedSize=1;" vertex="1" parent="1">
          <mxGeometry x="-920" y="1240" width="120" height="60" as="geometry" />
        </mxCell>
        <mxCell id="gTfDDO29pahhirzjCOl5-116" style="edgeStyle=orthogonalEdgeStyle;rounded=0;orthogonalLoop=1;jettySize=auto;html=1;" edge="1" parent="1" source="gTfDDO29pahhirzjCOl5-117" target="gTfDDO29pahhirzjCOl5-120">
          <mxGeometry relative="1" as="geometry">
            <mxPoint x="-370" y="1400" as="targetPoint" />
          </mxGeometry>
        </mxCell>
        <mxCell id="gTfDDO29pahhirzjCOl5-117" value="cout" style="shape=parallelogram;perimeter=parallelogramPerimeter;whiteSpace=wrap;html=1;fixedSize=1;" vertex="1" parent="1">
          <mxGeometry x="-270" y="1380" width="120" height="60" as="geometry" />
        </mxCell>
        <mxCell id="gTfDDO29pahhirzjCOl5-118" style="edgeStyle=orthogonalEdgeStyle;rounded=0;orthogonalLoop=1;jettySize=auto;html=1;" edge="1" parent="1" source="gTfDDO29pahhirzjCOl5-120" target="gTfDDO29pahhirzjCOl5-123">
          <mxGeometry relative="1" as="geometry">
            <mxPoint x="-480" y="1400" as="targetPoint" />
          </mxGeometry>
        </mxCell>
        <mxCell id="gTfDDO29pahhirzjCOl5-119" style="edgeStyle=orthogonalEdgeStyle;rounded=0;orthogonalLoop=1;jettySize=auto;html=1;" edge="1" parent="1" source="gTfDDO29pahhirzjCOl5-120">
          <mxGeometry relative="1" as="geometry">
            <mxPoint x="-370" y="1350" as="targetPoint" />
          </mxGeometry>
        </mxCell>
        <mxCell id="gTfDDO29pahhirzjCOl5-120" value="if" style="rhombus;whiteSpace=wrap;html=1;" vertex="1" parent="1">
          <mxGeometry x="-410" y="1360" width="80" height="80" as="geometry" />
        </mxCell>
        <mxCell id="gTfDDO29pahhirzjCOl5-121" style="edgeStyle=orthogonalEdgeStyle;rounded=0;orthogonalLoop=1;jettySize=auto;html=1;" edge="1" parent="1" source="gTfDDO29pahhirzjCOl5-123" target="gTfDDO29pahhirzjCOl5-129">
          <mxGeometry relative="1" as="geometry">
            <mxPoint x="-680" y="1400" as="targetPoint" />
          </mxGeometry>
        </mxCell>
        <mxCell id="gTfDDO29pahhirzjCOl5-122" style="edgeStyle=orthogonalEdgeStyle;rounded=0;orthogonalLoop=1;jettySize=auto;html=1;" edge="1" parent="1" source="gTfDDO29pahhirzjCOl5-123" target="gTfDDO29pahhirzjCOl5-131">
          <mxGeometry relative="1" as="geometry">
            <mxPoint x="-660" y="1490" as="targetPoint" />
            <Array as="points">
              <mxPoint x="-540" y="1480" />
              <mxPoint x="-539" y="1480" />
            </Array>
          </mxGeometry>
        </mxCell>
        <mxCell id="gTfDDO29pahhirzjCOl5-123" value="if" style="rhombus;whiteSpace=wrap;html=1;" vertex="1" parent="1">
          <mxGeometry x="-580" y="1360" width="80" height="80" as="geometry" />
        </mxCell>
        <mxCell id="gTfDDO29pahhirzjCOl5-124" value="true" style="text;html=1;align=center;verticalAlign=middle;resizable=0;points=[];autosize=1;strokeColor=none;fillColor=none;" vertex="1" parent="1">
          <mxGeometry x="-470" y="1358" width="40" height="30" as="geometry" />
        </mxCell>
        <mxCell id="gTfDDO29pahhirzjCOl5-125" style="edgeStyle=orthogonalEdgeStyle;rounded=0;orthogonalLoop=1;jettySize=auto;html=1;" edge="1" parent="1" target="gTfDDO29pahhirzjCOl5-127">
          <mxGeometry relative="1" as="geometry">
            <mxPoint x="-500" y="1310" as="targetPoint" />
            <mxPoint x="-410" y="1310" as="sourcePoint" />
          </mxGeometry>
        </mxCell>
        <mxCell id="gTfDDO29pahhirzjCOl5-126" value="else" style="rhombus;whiteSpace=wrap;html=1;" vertex="1" parent="1">
          <mxGeometry x="-413" y="1270" width="80" height="80" as="geometry" />
        </mxCell>
        <mxCell id="gTfDDO29pahhirzjCOl5-127" value="cout" style="shape=parallelogram;perimeter=parallelogramPerimeter;whiteSpace=wrap;html=1;fixedSize=1;" vertex="1" parent="1">
          <mxGeometry x="-560" y="1280" width="120" height="60" as="geometry" />
        </mxCell>
        <mxCell id="gTfDDO29pahhirzjCOl5-128" value="true" style="text;html=1;align=center;verticalAlign=middle;resizable=0;points=[];autosize=1;strokeColor=none;fillColor=none;" vertex="1" parent="1">
          <mxGeometry x="-650" y="1358" width="40" height="30" as="geometry" />
        </mxCell>
        <mxCell id="gTfDDO29pahhirzjCOl5-129" value="&#xa;&lt;span style=&quot;color: rgb(0, 0, 0); font-family: Helvetica; font-size: 12px; font-style: normal; font-variant-ligatures: normal; font-variant-caps: normal; font-weight: 400; letter-spacing: normal; orphans: 2; text-align: center; text-indent: 0px; text-transform: none; widows: 2; word-spacing: 0px; -webkit-text-stroke-width: 0px; white-space: normal; background-color: rgb(251, 251, 251); text-decoration-thickness: initial; text-decoration-style: initial; text-decoration-color: initial; display: inline !important; float: none;&quot;&gt;cout&lt;/span&gt;&#xa;&#xa;" style="shape=parallelogram;perimeter=parallelogramPerimeter;whiteSpace=wrap;html=1;fixedSize=1;" vertex="1" parent="1">
          <mxGeometry x="-770" y="1369" width="120" height="60" as="geometry" />
        </mxCell>
        <mxCell id="gTfDDO29pahhirzjCOl5-130" style="edgeStyle=orthogonalEdgeStyle;rounded=0;orthogonalLoop=1;jettySize=auto;html=1;" edge="1" parent="1" source="gTfDDO29pahhirzjCOl5-131" target="gTfDDO29pahhirzjCOl5-132">
          <mxGeometry relative="1" as="geometry">
            <mxPoint x="-780" y="1490" as="targetPoint" />
          </mxGeometry>
        </mxCell>
        <mxCell id="gTfDDO29pahhirzjCOl5-131" value="else" style="rhombus;whiteSpace=wrap;html=1;" vertex="1" parent="1">
          <mxGeometry x="-700" y="1450" width="80" height="80" as="geometry" />
        </mxCell>
        <mxCell id="gTfDDO29pahhirzjCOl5-132" value="cout" style="shape=parallelogram;perimeter=parallelogramPerimeter;whiteSpace=wrap;html=1;fixedSize=1;" vertex="1" parent="1">
          <mxGeometry x="-840" y="1460" width="120" height="60" as="geometry" />
        </mxCell>
        <mxCell id="gTfDDO29pahhirzjCOl5-135" style="edgeStyle=orthogonalEdgeStyle;rounded=0;orthogonalLoop=1;jettySize=auto;html=1;" edge="1" parent="1" source="gTfDDO29pahhirzjCOl5-134" target="gTfDDO29pahhirzjCOl5-117">
          <mxGeometry relative="1" as="geometry" />
        </mxCell>
        <mxCell id="gTfDDO29pahhirzjCOl5-148" style="edgeStyle=orthogonalEdgeStyle;rounded=0;orthogonalLoop=1;jettySize=auto;html=1;" edge="1" parent="1" source="gTfDDO29pahhirzjCOl5-134" target="gTfDDO29pahhirzjCOl5-140">
          <mxGeometry relative="1" as="geometry" />
        </mxCell>
        <mxCell id="gTfDDO29pahhirzjCOl5-134" value="&#xa;&lt;span style=&quot;color: rgb(0, 0, 0); font-family: Helvetica; font-size: 12px; font-style: normal; font-variant-ligatures: normal; font-variant-caps: normal; font-weight: 400; letter-spacing: normal; orphans: 2; text-align: center; text-indent: 0px; text-transform: none; widows: 2; word-spacing: 0px; -webkit-text-stroke-width: 0px; white-space: normal; background-color: rgb(251, 251, 251); text-decoration-thickness: initial; text-decoration-style: initial; text-decoration-color: initial; display: inline !important; float: none;&quot;&gt;cout&lt;/span&gt;&#xa;&#xa;" style="shape=parallelogram;perimeter=parallelogramPerimeter;whiteSpace=wrap;html=1;fixedSize=1;" vertex="1" parent="1">
          <mxGeometry x="120" y="1410" width="120" height="60" as="geometry" />
        </mxCell>
        <mxCell id="gTfDDO29pahhirzjCOl5-138" style="edgeStyle=orthogonalEdgeStyle;rounded=0;orthogonalLoop=1;jettySize=auto;html=1;" edge="1" parent="1" source="gTfDDO29pahhirzjCOl5-137" target="gTfDDO29pahhirzjCOl5-139">
          <mxGeometry relative="1" as="geometry">
            <mxPoint x="-70" y="810" as="targetPoint" />
          </mxGeometry>
        </mxCell>
        <mxCell id="gTfDDO29pahhirzjCOl5-137" value="for" style="rhombus;whiteSpace=wrap;html=1;" vertex="1" parent="1">
          <mxGeometry x="-110" y="890" width="80" height="80" as="geometry" />
        </mxCell>
        <mxCell id="gTfDDO29pahhirzjCOl5-139" value="cout" style="shape=parallelogram;perimeter=parallelogramPerimeter;whiteSpace=wrap;html=1;fixedSize=1;" vertex="1" parent="1">
          <mxGeometry x="-130" y="780" width="120" height="60" as="geometry" />
        </mxCell>
        <mxCell id="gTfDDO29pahhirzjCOl5-141" style="edgeStyle=orthogonalEdgeStyle;rounded=0;orthogonalLoop=1;jettySize=auto;html=1;" edge="1" parent="1" source="gTfDDO29pahhirzjCOl5-140" target="gTfDDO29pahhirzjCOl5-142">
          <mxGeometry relative="1" as="geometry">
            <mxPoint x="-20" y="1540" as="targetPoint" />
          </mxGeometry>
        </mxCell>
        <mxCell id="gTfDDO29pahhirzjCOl5-149" style="edgeStyle=orthogonalEdgeStyle;rounded=0;orthogonalLoop=1;jettySize=auto;html=1;" edge="1" parent="1" source="gTfDDO29pahhirzjCOl5-140" target="gTfDDO29pahhirzjCOl5-143">
          <mxGeometry relative="1" as="geometry" />
        </mxCell>
        <mxCell id="gTfDDO29pahhirzjCOl5-140" value="e=true" style="rounded=0;whiteSpace=wrap;html=1;" vertex="1" parent="1">
          <mxGeometry x="110" y="1520" width="120" height="60" as="geometry" />
        </mxCell>
        <mxCell id="gTfDDO29pahhirzjCOl5-142" value="cout" style="shape=parallelogram;perimeter=parallelogramPerimeter;whiteSpace=wrap;html=1;fixedSize=1;" vertex="1" parent="1">
          <mxGeometry x="-80" y="1510" width="120" height="60" as="geometry" />
        </mxCell>
        <mxCell id="gTfDDO29pahhirzjCOl5-144" style="edgeStyle=orthogonalEdgeStyle;rounded=0;orthogonalLoop=1;jettySize=auto;html=1;" edge="1" parent="1" source="gTfDDO29pahhirzjCOl5-143" target="gTfDDO29pahhirzjCOl5-145">
          <mxGeometry relative="1" as="geometry">
            <mxPoint x="-30" y="1660" as="targetPoint" />
          </mxGeometry>
        </mxCell>
        <mxCell id="gTfDDO29pahhirzjCOl5-150" style="edgeStyle=orthogonalEdgeStyle;rounded=0;orthogonalLoop=1;jettySize=auto;html=1;entryX=0.075;entryY=0.65;entryDx=0;entryDy=0;entryPerimeter=0;" edge="1" parent="1" source="gTfDDO29pahhirzjCOl5-143" target="gTfDDO29pahhirzjCOl5-152">
          <mxGeometry relative="1" as="geometry">
            <mxPoint x="350" y="1840" as="targetPoint" />
            <Array as="points">
              <mxPoint x="160" y="1760" />
              <mxPoint x="161" y="1760" />
              <mxPoint x="161" y="1842" />
            </Array>
          </mxGeometry>
        </mxCell>
        <mxCell id="gTfDDO29pahhirzjCOl5-143" value="cout" style="shape=parallelogram;perimeter=parallelogramPerimeter;whiteSpace=wrap;html=1;fixedSize=1;" vertex="1" parent="1">
          <mxGeometry x="100" y="1630" width="120" height="60" as="geometry" />
        </mxCell>
        <mxCell id="gTfDDO29pahhirzjCOl5-145" value="goto" style="rounded=0;whiteSpace=wrap;html=1;" vertex="1" parent="1">
          <mxGeometry x="-90" y="1630" width="120" height="60" as="geometry" />
        </mxCell>
        <mxCell id="gTfDDO29pahhirzjCOl5-147" style="edgeStyle=orthogonalEdgeStyle;rounded=0;orthogonalLoop=1;jettySize=auto;html=1;entryX=0.408;entryY=0.017;entryDx=0;entryDy=0;entryPerimeter=0;" edge="1" parent="1" source="gTfDDO29pahhirzjCOl5-76" target="gTfDDO29pahhirzjCOl5-134">
          <mxGeometry relative="1" as="geometry" />
        </mxCell>
        <mxCell id="gTfDDO29pahhirzjCOl5-153" style="edgeStyle=orthogonalEdgeStyle;rounded=0;orthogonalLoop=1;jettySize=auto;html=1;" edge="1" parent="1" source="gTfDDO29pahhirzjCOl5-152" target="gTfDDO29pahhirzjCOl5-154">
          <mxGeometry relative="1" as="geometry">
            <mxPoint x="410" y="1950" as="targetPoint" />
          </mxGeometry>
        </mxCell>
        <mxCell id="gTfDDO29pahhirzjCOl5-152" value="do" style="rhombus;whiteSpace=wrap;html=1;" vertex="1" parent="1">
          <mxGeometry x="370" y="1790" width="80" height="80" as="geometry" />
        </mxCell>
        <mxCell id="gTfDDO29pahhirzjCOl5-155" style="edgeStyle=orthogonalEdgeStyle;rounded=0;orthogonalLoop=1;jettySize=auto;html=1;" edge="1" parent="1" source="gTfDDO29pahhirzjCOl5-154" target="gTfDDO29pahhirzjCOl5-156">
          <mxGeometry relative="1" as="geometry">
            <mxPoint x="410" y="2060" as="targetPoint" />
          </mxGeometry>
        </mxCell>
        <mxCell id="gTfDDO29pahhirzjCOl5-154" value="cout" style="shape=parallelogram;perimeter=parallelogramPerimeter;whiteSpace=wrap;html=1;fixedSize=1;" vertex="1" parent="1">
          <mxGeometry x="350" y="1920" width="120" height="60" as="geometry" />
        </mxCell>
        <mxCell id="gTfDDO29pahhirzjCOl5-157" style="edgeStyle=orthogonalEdgeStyle;rounded=0;orthogonalLoop=1;jettySize=auto;html=1;" edge="1" parent="1" source="gTfDDO29pahhirzjCOl5-156" target="gTfDDO29pahhirzjCOl5-158">
          <mxGeometry relative="1" as="geometry">
            <mxPoint x="410" y="2150" as="targetPoint" />
          </mxGeometry>
        </mxCell>
        <mxCell id="gTfDDO29pahhirzjCOl5-156" value="cin" style="shape=parallelogram;perimeter=parallelogramPerimeter;whiteSpace=wrap;html=1;fixedSize=1;" vertex="1" parent="1">
          <mxGeometry x="350" y="2030" width="120" height="60" as="geometry" />
        </mxCell>
        <mxCell id="gTfDDO29pahhirzjCOl5-162" style="edgeStyle=orthogonalEdgeStyle;rounded=0;orthogonalLoop=1;jettySize=auto;html=1;" edge="1" parent="1" source="gTfDDO29pahhirzjCOl5-158" target="gTfDDO29pahhirzjCOl5-163">
          <mxGeometry relative="1" as="geometry">
            <mxPoint x="520" y="2150" as="targetPoint" />
          </mxGeometry>
        </mxCell>
        <mxCell id="gTfDDO29pahhirzjCOl5-166" style="edgeStyle=orthogonalEdgeStyle;rounded=0;orthogonalLoop=1;jettySize=auto;html=1;" edge="1" parent="1" source="gTfDDO29pahhirzjCOl5-158" target="gTfDDO29pahhirzjCOl5-168">
          <mxGeometry relative="1" as="geometry">
            <mxPoint x="410" y="2250" as="targetPoint" />
          </mxGeometry>
        </mxCell>
        <mxCell id="gTfDDO29pahhirzjCOl5-158" value="if" style="rhombus;whiteSpace=wrap;html=1;" vertex="1" parent="1">
          <mxGeometry x="370" y="2110" width="80" height="80" as="geometry" />
        </mxCell>
        <mxCell id="gTfDDO29pahhirzjCOl5-169" style="edgeStyle=orthogonalEdgeStyle;rounded=0;orthogonalLoop=1;jettySize=auto;html=1;" edge="1" parent="1" source="gTfDDO29pahhirzjCOl5-163" target="gTfDDO29pahhirzjCOl5-170">
          <mxGeometry relative="1" as="geometry">
            <mxPoint x="550" y="2300" as="targetPoint" />
          </mxGeometry>
        </mxCell>
        <mxCell id="gTfDDO29pahhirzjCOl5-171" style="edgeStyle=orthogonalEdgeStyle;rounded=0;orthogonalLoop=1;jettySize=auto;html=1;" edge="1" parent="1" source="gTfDDO29pahhirzjCOl5-163" target="gTfDDO29pahhirzjCOl5-172">
          <mxGeometry relative="1" as="geometry">
            <mxPoint x="650" y="2150" as="targetPoint" />
          </mxGeometry>
        </mxCell>
        <mxCell id="gTfDDO29pahhirzjCOl5-163" value="else if" style="rhombus;whiteSpace=wrap;html=1;" vertex="1" parent="1">
          <mxGeometry x="480" y="2110" width="80" height="80" as="geometry" />
        </mxCell>
        <mxCell id="gTfDDO29pahhirzjCOl5-176" style="edgeStyle=orthogonalEdgeStyle;rounded=0;orthogonalLoop=1;jettySize=auto;html=1;" edge="1" parent="1" source="gTfDDO29pahhirzjCOl5-168" target="gTfDDO29pahhirzjCOl5-180">
          <mxGeometry relative="1" as="geometry">
            <mxPoint x="410" y="2400" as="targetPoint" />
          </mxGeometry>
        </mxCell>
        <mxCell id="gTfDDO29pahhirzjCOl5-168" value="goto" style="rounded=0;whiteSpace=wrap;html=1;" vertex="1" parent="1">
          <mxGeometry x="350" y="2220" width="120" height="60" as="geometry" />
        </mxCell>
        <mxCell id="gTfDDO29pahhirzjCOl5-173" style="edgeStyle=orthogonalEdgeStyle;rounded=0;orthogonalLoop=1;jettySize=auto;html=1;" edge="1" parent="1" source="gTfDDO29pahhirzjCOl5-170" target="gTfDDO29pahhirzjCOl5-174">
          <mxGeometry relative="1" as="geometry">
            <mxPoint x="660" y="2300" as="targetPoint" />
          </mxGeometry>
        </mxCell>
        <mxCell id="gTfDDO29pahhirzjCOl5-170" value="else" style="rhombus;whiteSpace=wrap;html=1;" vertex="1" parent="1">
          <mxGeometry x="510" y="2260" width="80" height="80" as="geometry" />
        </mxCell>
        <mxCell id="gTfDDO29pahhirzjCOl5-177" style="edgeStyle=orthogonalEdgeStyle;rounded=0;orthogonalLoop=1;jettySize=auto;html=1;" edge="1" parent="1" source="gTfDDO29pahhirzjCOl5-172">
          <mxGeometry relative="1" as="geometry">
            <mxPoint x="430" y="2400" as="targetPoint" />
            <Array as="points">
              <mxPoint x="750" y="2150" />
              <mxPoint x="750" y="2151" />
              <mxPoint x="820" y="2151" />
              <mxPoint x="820" y="2400" />
            </Array>
          </mxGeometry>
        </mxCell>
        <mxCell id="gTfDDO29pahhirzjCOl5-172" value="e=true" style="rounded=0;whiteSpace=wrap;html=1;" vertex="1" parent="1">
          <mxGeometry x="590" y="2120" width="120" height="60" as="geometry" />
        </mxCell>
        <mxCell id="gTfDDO29pahhirzjCOl5-179" style="edgeStyle=orthogonalEdgeStyle;rounded=0;orthogonalLoop=1;jettySize=auto;html=1;" edge="1" parent="1" source="gTfDDO29pahhirzjCOl5-174">
          <mxGeometry relative="1" as="geometry">
            <mxPoint x="430" y="2400" as="targetPoint" />
            <Array as="points">
              <mxPoint x="660" y="2355" />
              <mxPoint x="661" y="2355" />
            </Array>
          </mxGeometry>
        </mxCell>
        <mxCell id="gTfDDO29pahhirzjCOl5-174" value="cout" style="shape=parallelogram;perimeter=parallelogramPerimeter;whiteSpace=wrap;html=1;fixedSize=1;" vertex="1" parent="1">
          <mxGeometry x="600" y="2270" width="120" height="60" as="geometry" />
        </mxCell>
        <mxCell id="gTfDDO29pahhirzjCOl5-181" style="edgeStyle=orthogonalEdgeStyle;rounded=0;orthogonalLoop=1;jettySize=auto;html=1;" edge="1" parent="1" source="gTfDDO29pahhirzjCOl5-180" target="gTfDDO29pahhirzjCOl5-182">
          <mxGeometry relative="1" as="geometry">
            <mxPoint x="410" y="2500" as="targetPoint" />
          </mxGeometry>
        </mxCell>
        <mxCell id="gTfDDO29pahhirzjCOl5-183" style="edgeStyle=orthogonalEdgeStyle;rounded=0;orthogonalLoop=1;jettySize=auto;html=1;" edge="1" parent="1" source="gTfDDO29pahhirzjCOl5-180" target="gTfDDO29pahhirzjCOl5-152">
          <mxGeometry relative="1" as="geometry">
            <mxPoint x="220" y="1840" as="targetPoint" />
            <Array as="points">
              <mxPoint x="260" y="2400" />
              <mxPoint x="260" y="2401" />
              <mxPoint x="140" y="2401" />
              <mxPoint x="140" y="1840" />
            </Array>
          </mxGeometry>
        </mxCell>
        <mxCell id="gTfDDO29pahhirzjCOl5-180" value="while" style="rounded=0;whiteSpace=wrap;html=1;" vertex="1" parent="1">
          <mxGeometry x="350" y="2370" width="120" height="60" as="geometry" />
        </mxCell>
        <mxCell id="gTfDDO29pahhirzjCOl5-186" style="edgeStyle=orthogonalEdgeStyle;rounded=0;orthogonalLoop=1;jettySize=auto;html=1;" edge="1" parent="1" source="gTfDDO29pahhirzjCOl5-182" target="gTfDDO29pahhirzjCOl5-187">
          <mxGeometry relative="1" as="geometry">
            <mxPoint x="410" y="2650" as="targetPoint" />
          </mxGeometry>
        </mxCell>
        <mxCell id="gTfDDO29pahhirzjCOl5-182" value="done" style="ellipse;whiteSpace=wrap;html=1;" vertex="1" parent="1">
          <mxGeometry x="350" y="2460" width="120" height="80" as="geometry" />
        </mxCell>
        <mxCell id="gTfDDO29pahhirzjCOl5-185" value="true" style="text;html=1;align=center;verticalAlign=middle;resizable=0;points=[];autosize=1;strokeColor=none;fillColor=none;" vertex="1" parent="1">
          <mxGeometry x="230" y="2338" width="40" height="30" as="geometry" />
        </mxCell>
        <mxCell id="gTfDDO29pahhirzjCOl5-188" style="edgeStyle=orthogonalEdgeStyle;rounded=0;orthogonalLoop=1;jettySize=auto;html=1;" edge="1" parent="1" source="gTfDDO29pahhirzjCOl5-187" target="gTfDDO29pahhirzjCOl5-189">
          <mxGeometry relative="1" as="geometry">
            <mxPoint x="410" y="2760" as="targetPoint" />
          </mxGeometry>
        </mxCell>
        <mxCell id="gTfDDO29pahhirzjCOl5-187" value="continue" style="rounded=0;whiteSpace=wrap;html=1;" vertex="1" parent="1">
          <mxGeometry x="350" y="2620" width="120" height="60" as="geometry" />
        </mxCell>
        <mxCell id="gTfDDO29pahhirzjCOl5-189" value="end" style="ellipse;whiteSpace=wrap;html=1;" vertex="1" parent="1">
          <mxGeometry x="350" y="2720" width="120" height="80" as="geometry" />
        </mxCell>
      </root>
    </mxGraphModel>
  </diagram>
</mxfile>
